<?xml version="1.0" standalone="no"?>
<!DOCTYPE svg PUBLIC "-//W3C//DTD SVG 20010904//EN"
 "http://www.w3.org/TR/2001/REC-SVG-20010904/DTD/svg10.dtd">
<svg version="1.0" xmlns="http://www.w3.org/2000/svg"
 width="50.000000pt" height="50.000000pt" viewBox="0 0 50.000000 50.000000"
 preserveAspectRatio="xMidYMid meet">

<g transform="translate(0.000000,50.000000) scale(0.100000,-0.100000)"
fill="#000000" stroke="none">
<path d="M138 423 c-60 -32 -108 -63 -108 -70 0 -10 47 -13 220 -13 178 0 220
3 220 13 0 11 -205 128 -221 127 -2 0 -52 -26 -111 -57z"/>
<path d="M50 306 c0 -8 5 -18 10 -21 6 -3 10 -42 10 -86 l0 -79 40 0 40 0 0
79 c0 44 5 83 10 86 6 3 10 13 10 21 0 11 -14 14 -60 14 -46 0 -60 -3 -60 -14z"/>
<path d="M190 306 c0 -8 5 -18 10 -21 6 -3 10 -42 10 -86 l0 -79 40 0 40 0 0
79 c0 44 5 83 10 86 6 3 10 13 10 21 0 11 -14 14 -60 14 -46 0 -60 -3 -60 -14z"/>
<path d="M330 306 c0 -8 5 -18 10 -21 6 -3 10 -42 10 -86 l0 -79 40 0 40 0 0
79 c0 44 5 83 10 86 6 3 10 13 10 21 0 11 -14 14 -60 14 -46 0 -60 -3 -60 -14z"/>
<path d="M24 86 c-3 -8 -4 -23 -2 -33 3 -17 19 -18 228 -18 l225 0 0 30 0 30
-223 3 c-188 2 -223 0 -228 -12z"/>
</g>
</svg>
