<?xml version="1.0" encoding="utf-8"?>
<!-- Svg Vector Icons : http://www.onlinewebfonts.com/icon -->
<!DOCTYPE svg PUBLIC "-//W3C//DTD SVG 1.1//EN" "http://www.w3.org/Graphics/SVG/1.1/DTD/svg11.dtd">
<svg version="1.1" xmlns="http://www.w3.org/2000/svg" xmlns:xlink="http://www.w3.org/1999/xlink" x="0px" y="0px" viewBox="0 0 1000 1000" enable-background="new 0 0 1000 1000" xml:space="preserve">
<metadata> Svg Vector Icons : http://www.onlinewebfonts.com/icon </metadata>
<g><g transform="translate(0.000000,511.000000) scale(0.100000,-0.100000)"><path d="M5251.1,4973.3c-620.6-132.3-1228.5-757.9-1401.4-1442.1c-22.9-96.7-40.7-122.1-96.6-137.4c-132.3-30.5-315.4-142.4-432.4-256.9c-310.3-310.3-414.6-880-246.7-1342.9c200.9-554.5,788.5-918.2,1714.3-1055.5l208.6-30.5V207v-501.1l-348.5-17.8c-437.5-20.3-961.4-78.8-1292-145c-139.9-25.4-256.9-48.3-259.4-48.3c-5.1,0-7.6,139.9-7.6,312.8v312.9l160.2,33c178,35.6,462.9,150.1,615.5,244.2c99.2,61,101.7,63.6,38.1,81.4c-35.6,7.6-172.9,71.2-305.2,137.3C2875.6,977.6,2489,1616,2537.3,2371.4c38.2,597.7,290,1040.2,755.4,1322.6c167.9,101.7,167.9,104.3-25.4,200.9c-618,312.8-1264.1,198.4-1833.8-325.5C909.5,3086.1,545.8,2307.8,545.8,1672c2.5-579.9,307.8-1055.5,857.1-1332.7c155.1-76.3,343.4-147.5,465.4-175.5l203.5-45.8v-460.4v-460.3l-119.6-45.8c-198.4-73.8-612.9-290-806.3-414.6c-244.2-160.3-551.9-460.4-674-653.7c-165.3-259.4-213.6-437.5-200.9-737.6c7.6-231.5,17.8-272.1,101.7-445.1c172.9-356.1,493.4-674,958.9-948.7c188.2-111.9,562.1-287.4,709.6-335.7c58.5-17.8,58.5-15.3,22.9,55.9c-20.4,38.1-68.7,167.9-106.8,287.4c-94.1,292.5-101.7,676.5-17.8,892.7c132.3,335.7,394.2,582.5,857.1,808.8c478.2,236.6,1068.2,401.9,2060.2,587.5c1566.7,289.9,1869.4,384,1978.8,618c55.9,117,53.4,183.1-10.2,312.8c-61.1,129.7-165.3,213.7-417.1,333.2l-190.8,89v554.5V708l223.8,33.1c811.4,119.6,1416.7,460.4,1645.6,925.8c239.1,483.2,155.1,1121.7-188.2,1465c-114.5,114.5-396.8,279.8-475.6,279.8c-15.3,0-35.6,33.1-43.2,73.8c-33.1,160.2-178,490.9-295.1,668.9c-132.2,203.5-358.6,440-529,557C6176.9,4973.3,5696.2,5070,5251.1,4973.3z"/><path d="M7878.5-830.7c122.1-134.8,150.1-358.6,66.1-531.6c-124.6-259.4-432.4-419.7-1459.9-757.9c-874.9-290-1190.3-434.9-1426.8-653.7C4862-2957,4773-3127.5,4752.6-3356.4c-48.3-495.9,315.4-936,1040.3-1266.6c432.4-198.4,412-195.8,844.4-117c2123.7,386.6,3375.1,1409,3039.4,2482.4c-167.9,539.2-707,1012.3-1571.8,1381.1C7865.8-774.8,7820-764.6,7878.5-830.7z"/></g></g>
</svg>