<?xml version="1.0" encoding="utf-8"?>
<!-- Svg Vector Icons : http://www.onlinewebfonts.com/icon -->
<!DOCTYPE svg PUBLIC "-//W3C//DTD SVG 1.1//EN" "http://www.w3.org/Graphics/SVG/1.1/DTD/svg11.dtd">
<svg version="1.1" xmlns="http://www.w3.org/2000/svg" xmlns:xlink="http://www.w3.org/1999/xlink" x="0px" y="0px" viewBox="0 0 1000 1000" enable-background="new 0 0 1000 1000" xml:space="preserve">
<metadata> Svg Vector Icons : http://www.onlinewebfonts.com/icon </metadata>
<g><g transform="translate(0.000000,511.000000) scale(0.100000,-0.100000)"><path d="M3796.2,4977.1c-122.4-38.8-251-151-310.1-271.4l-46.9-95.9l-6.1-1463l-6.1-1462.9l-1462.9-6.1l-1463-6.1l-95.9-46.9c-124.5-61.2-232.6-189.8-271.4-318.3c-44.9-151-44.9-2240.4,0-2391.4c38.8-128.5,146.9-257.1,271.4-318.3l95.9-46.9l1463-6.1l1462.9-6.1l6.1-1462.9l6.1-1463l46.9-95.9c61.2-124.5,189.8-232.6,318.3-271.4c151-44.9,2240.4-44.9,2391.3,0c128.6,38.8,257.1,146.9,318.3,271.4l46.9,95.9l6.1,1463l6.1,1462.9l1463,6.1l1463,6.1l95.9,46.9c124.5,61.2,232.6,189.8,271.4,318.3c44.9,151,44.9,2240.4,0,2391.4c-38.8,128.5-146.9,257.1-271.4,318.3l-95.9,46.9l-1463,6.1l-1463,6.1l-6.1,1462.9l-6.1,1463l-46.9,95.9c-61.2,124.5-189.8,232.6-318.3,271.4C6050.8,5020,3936.9,5020,3796.2,4977.1z"/></g></g>
</svg>